<svg xmlns="http://www.w3.org/2000/svg" viewBox="0 0 512 512" fill="none" role="img" aria-label="ESP32 Gateway">
  <defs>
    <linearGradient id="bg" x1="64" y1="48" x2="448" y2="464" gradientUnits="userSpaceOnUse">
      <stop stop-color="#f8fafc"/>
      <stop offset="1" stop-color="#e2e8f0"/>
    </linearGradient>
    <linearGradient id="accent" x1="160" y1="100" x2="352" y2="420" gradientUnits="userSpaceOnUse">
      <stop stop-color="#059669"/>
      <stop offset="1" stop-color="#2563eb"/>
    </linearGradient>
  </defs>
  <rect width="512" height="512" rx="112" fill="url(#bg)"/>
  <g stroke="url(#accent)" stroke-linecap="round" fill="none">
    <circle cx="256" cy="196" r="10" fill="url(#accent)" stroke="none"/>
    <path d="M220 208a56 56 0 0 1 72 0" stroke-width="16"/>
    <path d="M184 208a92 92 0 0 1 144 0" stroke-width="16"/>
    <path d="M148 208a128 128 0 0 1 216 0" stroke-width="16"/>
  </g>
  <rect x="176" y="276" width="160" height="160" rx="22" fill="#ffffff" stroke="url(#accent)" stroke-width="7"/>
  <rect x="214" y="314" width="84" height="84" rx="10" stroke="url(#accent)" stroke-width="5" fill="none"/>
  <g fill="url(#accent)">
    <rect x="204" y="252" width="14" height="24" rx="4"/>
    <rect x="232" y="252" width="14" height="24" rx="4"/>
    <rect x="260" y="252" width="14" height="24" rx="4"/>
    <rect x="288" y="252" width="14" height="24" rx="4"/>
    <rect x="316" y="252" width="14" height="24" rx="4"/>
    <rect x="204" y="436" width="14" height="24" rx="4"/>
    <rect x="232" y="436" width="14" height="24" rx="4"/>
    <rect x="260" y="436" width="14" height="24" rx="4"/>
    <rect x="288" y="436" width="14" height="24" rx="4"/>
    <rect x="316" y="436" width="14" height="24" rx="4"/>
    <rect x="152" y="304" width="24" height="14" rx="4"/>
    <rect x="152" y="332" width="24" height="14" rx="4"/>
    <rect x="152" y="360" width="24" height="14" rx="4"/>
    <rect x="152" y="388" width="24" height="14" rx="4"/>
    <rect x="152" y="416" width="24" height="14" rx="4"/>
    <rect x="336" y="304" width="24" height="14" rx="4"/>
    <rect x="336" y="332" width="24" height="14" rx="4"/>
    <rect x="336" y="360" width="24" height="14" rx="4"/>
    <rect x="336" y="388" width="24" height="14" rx="4"/>
    <rect x="336" y="416" width="24" height="14" rx="4"/>
  </g>
</svg>
