<svg xmlns="http://www.w3.org/2000/svg" viewBox="0 0 1200 320" fill="none" role="img" aria-label="ESP32 Gateway">
  <defs>
    <linearGradient id="bg" x1="0" y1="0" x2="1200" y2="320" gradientUnits="userSpaceOnUse">
      <stop stop-color="#0f1b2e"/>
      <stop offset="1" stop-color="#1a3050"/>
    </linearGradient>
    <linearGradient id="accent" x1="40" y1="40" x2="280" y2="280" gradientUnits="userSpaceOnUse">
      <stop stop-color="#34d399"/>
      <stop offset="1" stop-color="#38bdf8"/>
    </linearGradient>
    <radialGradient id="chipGlow" cx="160" cy="176" r="56" gradientUnits="userSpaceOnUse">
      <stop stop-color="#34d399" stop-opacity="0.35"/>
      <stop offset="1" stop-color="#34d399" stop-opacity="0"/>
    </radialGradient>
  </defs>
  <rect width="1200" height="320" rx="48" fill="url(#bg)"/>
  <g transform="translate(48 48) scale(0.4375)">
    <rect width="512" height="512" rx="112" fill="#12243d" stroke="url(#accent)" stroke-width="6" stroke-opacity="0.35"/>
    <g stroke="url(#accent)" stroke-linecap="round" fill="none">
      <circle cx="256" cy="196" r="10" fill="url(#accent)" stroke="none"/>
      <path d="M220 208a56 56 0 0 1 72 0" stroke-width="16"/>
      <path d="M184 208a92 92 0 0 1 144 0" stroke-width="16"/>
      <path d="M148 208a128 128 0 0 1 216 0" stroke-width="16"/>
    </g>
    <rect x="176" y="276" width="160" height="160" rx="22" fill="#1e293b" stroke="url(#accent)" stroke-width="7"/>
    <rect x="176" y="276" width="160" height="160" rx="22" fill="url(#chipGlow)"/>
    <rect x="214" y="314" width="84" height="84" rx="10" stroke="url(#accent)" stroke-width="5" fill="none"/>
    <g fill="url(#accent)">
      <rect x="204" y="252" width="14" height="24" rx="4"/>
      <rect x="232" y="252" width="14" height="24" rx="4"/>
      <rect x="260" y="252" width="14" height="24" rx="4"/>
      <rect x="288" y="252" width="14" height="24" rx="4"/>
      <rect x="316" y="252" width="14" height="24" rx="4"/>
      <rect x="204" y="436" width="14" height="24" rx="4"/>
      <rect x="232" y="436" width="14" height="24" rx="4"/>
      <rect x="260" y="436" width="14" height="24" rx="4"/>
      <rect x="288" y="436" width="14" height="24" rx="4"/>
      <rect x="316" y="436" width="14" height="24" rx="4"/>
      <rect x="152" y="304" width="24" height="14" rx="4"/>
      <rect x="152" y="332" width="24" height="14" rx="4"/>
      <rect x="152" y="360" width="24" height="14" rx="4"/>
      <rect x="152" y="388" width="24" height="14" rx="4"/>
      <rect x="152" y="416" width="24" height="14" rx="4"/>
      <rect x="336" y="304" width="24" height="14" rx="4"/>
      <rect x="336" y="332" width="24" height="14" rx="4"/>
      <rect x="336" y="360" width="24" height="14" rx="4"/>
      <rect x="336" y="388" width="24" height="14" rx="4"/>
      <rect x="336" y="416" width="24" height="14" rx="4"/>
    </g>
  </g>
  <text x="300" y="148" fill="#f8fafc" font-family="system-ui, -apple-system, 'Segoe UI', sans-serif" font-size="72" font-weight="700" letter-spacing="-0.02em">ESP32 Gateway</text>
  <text x="302" y="206" fill="#94a3b8" font-family="system-ui, -apple-system, 'Segoe UI', sans-serif" font-size="34" font-weight="500">esp32.kuzyak.in</text>
</svg>
